<?xml version="1.0" encoding="UTF-8"?>
<!DOCTYPE svg PUBLIC "-//W3C//DTD SVG 1.1//EN" "http://www.w3.org/Graphics/SVG/1.1/DTD/svg11.dtd">
<!-- Creator: CorelDRAW X6 -->
<svg xmlns="http://www.w3.org/2000/svg" xml:space="preserve" width="24mm" height="24mm" version="1.1" style="shape-rendering:geometricPrecision; text-rendering:geometricPrecision; image-rendering:optimizeQuality; fill-rule:evenodd; clip-rule:evenodd"
viewBox="0 0 2400 2400"
 xmlns:xlink="http://www.w3.org/1999/xlink"
 enable-background="new 0 0 128 128">
 <defs>
  <style type="text/css">
   <![CDATA[
    .fil1 {fill:#FEFEFE}
    .fil0 {fill:#0654AE}
   ]]>
  </style>
 </defs>
 <g id="Camada_x0020_1">
  <metadata id="CorelCorpID_0Corel-Layer"/>
  <circle class="fil0" cx="1200" cy="1200" r="1150"/>
  <path id="Instagram" class="fil1" d="M1572 896c0,38 -31,69 -68,69 -38,0 -69,-31 -69,-69 0,-37 31,-68 69,-68 37,0 68,31 68,68zm-372 494c-105,0 -190,-85 -190,-190 0,-105 85,-190 190,-190 105,0 190,85 190,190 0,105 -85,190 -190,190zm0 -482c-161,0 -292,131 -292,292 0,161 131,292 292,292 161,0 292,-131 292,-292 0,-161 -131,-292 -292,-292zm0 -174c152,0 170,0 230,3 55,2 85,12 106,20 26,10 45,22 65,42 20,20 32,39 43,65 7,21 17,51 19,106 3,60 3,78 3,230 0,152 0,170 -3,230 -2,55 -12,86 -19,106 -11,26 -23,45 -43,65 -20,20 -39,32 -65,43 -21,7 -51,17 -106,19 -60,3 -78,3 -230,3 -152,0 -170,0 -230,-3 -55,-2 -85,-12 -106,-19 -26,-11 -45,-23 -65,-43 -20,-20 -32,-39 -43,-65 -7,-20 -17,-51 -19,-106 -3,-60 -3,-78 -3,-230 0,-152 0,-170 3,-230 2,-55 12,-85 19,-106 11,-26 23,-45 43,-65 20,-20 39,-32 65,-42 21,-8 51,-18 106,-20 60,-3 78,-3 230,-3zm0 -103c-155,0 -174,1 -235,4 -60,2 -101,12 -138,26 -37,14 -69,34 -100,66 -32,31 -52,63 -66,100 -14,37 -24,78 -26,138 -3,61 -4,81 -4,235 0,155 1,174 4,235 2,60 12,101 26,138 14,37 34,69 66,100 31,32 63,52 100,66 37,14 78,24 138,27 61,2 80,3 235,3 155,0 174,-1 235,-3 60,-3 101,-13 138,-27 37,-14 69,-34 100,-66 32,-31 52,-63 66,-100 14,-37 24,-78 26,-138 3,-61 4,-80 4,-235 0,-154 -1,-174 -4,-235 -2,-60 -12,-101 -26,-138 -14,-37 -34,-69 -66,-100 -31,-32 -63,-51 -100,-66 -37,-14 -78,-24 -138,-26 -61,-3 -80,-4 -235,-4z"/>
 </g>
</svg>
