<?xml version="1.0" encoding="UTF-8"?>
<!DOCTYPE svg PUBLIC "-//W3C//DTD SVG 1.1//EN" "http://www.w3.org/Graphics/SVG/1.1/DTD/svg11.dtd">
<!-- Creator: CorelDRAW X6 -->
<svg xmlns="http://www.w3.org/2000/svg" xml:space="preserve" width="170mm" height="56mm" version="1.1" style="shape-rendering:geometricPrecision; text-rendering:geometricPrecision; image-rendering:optimizeQuality; fill-rule:evenodd; clip-rule:evenodd"
viewBox="0 0 17000 5600"
 xmlns:xlink="http://www.w3.org/1999/xlink">
 <defs>
  <style type="text/css">
   <![CDATA[
    .fil1 {fill:#19295E}
    .fil0 {fill:#3EA5E6}
   ]]>
  </style>
 </defs>
 <g id="Camada_x0020_1">
  <metadata id="CorelCorpID_0Corel-Layer"/>
  <g id="_1190715168">
   <path class="fil0" d="M1063 788c-480,212 -677,1063 -498,1718 109,397 576,1468 1013,1328 521,-166 -307,-667 -480,-1538 -191,-960 423,-1102 349,-1338 -32,-103 -234,-237 -384,-170zm2805 1312c-58,116 -16,123 45,218 53,83 87,139 110,246 44,213 -12,430 266,399 40,-318 -169,-904 -421,-863zm-1304 -519c29,277 318,130 559,172 226,40 369,209 521,136 -31,-286 -814,-508 -1080,-308zm52 1125c32,-215 -115,-243 -121,-492 -4,-223 89,-414 -223,-386 -161,237 -58,992 344,878zm2489 2085c176,-213 -88,-634 -395,-456 -1127,655 -1846,-222 -2333,-228 -399,-4 -486,687 1062,991 441,87 1356,68 1666,-307zm-479 -2383c-35,-379 -962,-1217 -1437,-1226 18,356 478,160 1060,907 143,184 110,302 377,319zm-1786 560c-106,219 238,344 442,408 792,246 971,-268 621,-295 -102,-7 -194,75 -388,65 -309,-15 -490,-241 -675,-178zm-1061 -917l61 -157c190,-767 746,-558 1046,-655 66,-223 -254,-227 -453,-211 -242,19 -431,90 -585,199 -458,327 -464,996 -69,824zm1956 1773c-122,582 763,272 1015,-120 149,-231 276,-1016 -135,-1018 -94,180 94,479 -155,798 -224,285 -346,217 -725,340zm-1427 -3044c371,0 635,53 970,187 389,155 531,349 711,269 118,-519 -2656,-1106 -2313,-555 125,201 390,99 632,99zm1025 3246c169,-477 -624,-226 -1255,-1221 -88,-137 -226,-547 -454,-387 -297,209 1045,1723 1709,1608zm1861 -670c0,230 -85,415 -44,559 40,140 168,243 339,242 311,-404 -70,-1396 -239,-1721 -131,-252 -474,-700 -688,-876 -266,-218 -311,23 -129,203 410,402 760,966 761,1593z"/>
   <path class="fil1" d="M7399 1755c569,0 1030,461 1030,1030 0,568 -461,1029 -1030,1029 -568,0 -1029,-461 -1029,-1029 0,-569 461,-1030 1029,-1030zm7805 905l941 0 0 -852 355 0 0 1953 -355 0 0 -772 -941 0 0 772 -355 0 0 -1953 355 0 0 852zm-4136 -40l932 0 0 329 -932 0 0 483 1030 0 0 329 -1030 0 -355 0 0 -329 0 -483 0 -329 0 -483 0 -329 355 0 1030 0 0 329 -1030 0 0 483zm-1757 -483l0 1624 355 0 0 -1624 568 0 0 -329 -1491 0 0 329 568 0zm4283 -382c314,0 594,140 783,361l-258 217c-127,-147 -315,-241 -525,-241 -382,0 -692,310 -692,693 0,382 310,692 692,692 206,0 391,-90 517,-232l259 216c-188,216 -466,353 -776,353 -568,0 -1029,-461 -1029,-1029 0,-569 461,-1030 1029,-1030zm-6195 337c383,0 693,310 693,693 0,382 -310,692 -693,692 -382,0 -692,-310 -692,-692 0,-383 310,-693 692,-693z"/>
  </g>
 </g>
</svg>
